<svg width="39" height="40" viewBox="0 0 39 40" fill="none" xmlns="http://www.w3.org/2000/svg">
<path d="M19.4032 12.4236L20.3559 14.652C20.4205 14.8458 20.5982 14.9588 20.7758 14.975L23.198 15.2011C23.7148 15.2495 23.9085 15.8793 23.5371 16.2184L21.7124 17.8171C21.5671 17.9462 21.5025 18.14 21.5509 18.3176L22.0838 20.6914C22.1968 21.192 21.6639 21.5796 21.2118 21.3212L19.1287 20.0778C18.9672 19.9809 18.7573 19.9809 18.5958 20.0778L16.5127 21.3212C16.0767 21.5796 15.5276 21.192 15.6407 20.6914L16.1736 18.3176C16.222 18.14 16.1574 17.9462 16.0121 17.8171L14.1873 16.2184C13.7998 15.8793 14.0097 15.2495 14.5265 15.2011L16.9487 14.975C17.1425 14.9588 17.3039 14.8458 17.3847 14.6682L18.3374 12.4397C18.5312 11.9553 19.1933 11.9553 19.4032 12.4236Z" stroke="#F0C932" stroke-width="1.61481" stroke-miterlimit="10" stroke-linecap="round" stroke-linejoin="round"/>
<path d="M29.8467 17.1464C29.8884 11.0819 25.006 6.13177 18.9415 6.09004C12.877 6.0483 7.92694 10.9307 7.8852 16.9952C7.84347 23.0597 12.7259 28.0098 18.7904 28.0515C24.8549 28.0933 29.8049 23.2108 29.8467 17.1464Z" stroke="#F0C932" stroke-width="1.61481" stroke-miterlimit="10" stroke-linecap="round" stroke-linejoin="round"/>
<path d="M17.3684 27.9419L14.6394 34.8049L11.1837 30.8486L5.96783 31.333L9.42354 22.6776" stroke="#F0C932" stroke-width="1.61481" stroke-miterlimit="10" stroke-linecap="round" stroke-linejoin="round"/>
<path d="M20.3398 27.9419L23.085 34.8049L26.5245 30.8486L31.7565 31.333L28.2847 22.6776" stroke="#F0C932" stroke-width="1.61481" stroke-miterlimit="10" stroke-linecap="round" stroke-linejoin="round"/>
</svg>
